<svg width="40.019mm" height="52.797mm" version="1.1" viewBox="0 0 40.019 52.797" xmlns="http://www.w3.org/2000/svg">
 <g transform="translate(-62.633 -78.346)">
  <g transform="translate(1 -1)" fill="none" stroke="#263238" stroke-linecap="round" stroke-width="1.3">
   <path d="m87.76 81-12.234 7.069"/>
   <path d="m87.76 81 12.234 7.069"/>
   <path d="m87.76 95.138-12.234-7.069"/>
   <path d="m99.994 88.069-12.234 7.069"/>
   <path d="m99.994 102.21v-14.138"/>
   <path d="m87.76 95.138-3e-6 14.138"/>
   <path d="m99.994 102.21-12.234 7.069"/>
   <path d="m75.526 102.21 12.234 7.069"/>
   <path d="m75.526 88.069v14.138"/>
   <path d="m75.526 102.21-12.234 7.069"/>
   <path d="m75.526 102.21 12.234 7.069"/>
   <path d="m75.526 116.35-12.234-7.069"/>
   <path d="m87.76 109.28-12.234 7.069"/>
   <path d="m87.76 123.41v-14.138"/>
   <path d="m75.526 116.35-3e-6 14.138"/>
   <path d="m87.76 123.41-12.234 7.069"/>
   <path d="m63.291 123.41 12.234 7.069"/>
   <path d="m63.291 109.28v14.138"/>
  </g>
 </g>
</svg>
