<svg width="64.487mm" height="52.797mm" version="1.1" viewBox="0 0 64.487 52.797" xmlns="http://www.w3.org/2000/svg">
 <g transform="translate(-49.91 -104.88)">
  <g transform="translate(1 -1)" fill="none" stroke="#263238" stroke-linecap="round" stroke-width="4.3174">
   <g transform="matrix(.3011 0 0 .3011 -48.254 86.645)">
    <path d="m368.83 69.37-40.631 23.477"/>
    <path d="m368.83 69.37 40.631 23.477"/>
    <path d="m368.83 116.32-40.631-23.477"/>
    <path d="m409.46 92.847-40.631 23.477"/>
    <path d="m409.46 139.8v-46.954"/>
    <path d="m368.83 116.32-1e-5 46.954"/>
    <path d="m409.46 139.8-40.631 23.477"/>
    <path d="m328.2 139.8 40.631 23.477"/>
    <path d="m328.2 92.847v46.954"/>
   </g>
   <g transform="matrix(.3011 0 0 .3011 -23.786 86.645)">
    <path d="m368.83 69.37-40.631 23.477"/>
    <path d="m368.83 69.37 40.631 23.477"/>
    <path d="m368.83 116.32-40.631-23.477"/>
    <path d="m409.46 92.847-40.631 23.477"/>
    <path d="m409.46 139.8v-46.954"/>
    <path d="m368.83 116.32-1e-5 46.954"/>
    <path d="m409.46 139.8-40.631 23.477"/>
    <path d="m328.2 139.8 40.631 23.477"/>
    <path d="m328.2 92.847v46.954"/>
   </g>
   <g transform="matrix(.3011 0 0 .3011 -11.551 107.85)">
    <path d="m368.83 69.37-40.631 23.477"/>
    <path d="m368.83 69.37 40.631 23.477"/>
    <path d="m368.83 116.32-40.631-23.477"/>
    <path d="m409.46 92.847-40.631 23.477"/>
    <path d="m409.46 139.8v-46.954"/>
    <path d="m368.83 116.32-1e-5 46.954"/>
    <path d="m409.46 139.8-40.631 23.477"/>
    <path d="m328.2 139.8 40.631 23.477"/>
    <path d="m328.2 92.847v46.954"/>
   </g>
  </g>
 </g>
</svg>
